<svg enable-background="new 0 0 512 512" viewBox="0 0 512 512" xmlns="http://www.w3.org/2000/svg"><path d="m475.682 41.273c0-18.166-14.861-33.029-33.026-33.029h-373.31c-18.166 0-33.028 14.863-33.028 33.029v429.453c0 18.166 14.863 33.029 33.028 33.029h373.309c18.163 0 33.026-14.863 33.026-33.029z" fill="#e4e4e4"/><path d="m442.656 8.244h-373.31c-18.166 0-33.028 14.863-33.028 33.029v54.545h439.364v-54.545c0-18.166-14.862-33.029-33.026-33.029z" fill="#a4a9ad"/><path d="m36.318 470.727c0 18.166 14.863 33.029 33.028 33.029h373.309c18.163 0 33.026-14.863 33.026-33.029z" fill="#333e48"/><path d="m256.001 153.616c-67.489 0-122.2 54.711-122.2 122.2 0 67.491 54.71 122.202 122.2 122.202s122.202-54.71 122.202-122.202c0-67.489-54.713-122.2-122.202-122.2z" fill="#333e48"/><circle cx="255.997" cy="275.816" fill="#99daea" r="99.084"/><path d="m352.314 252.571c-7.258 1.15-14.233 4.471-19.799 10.033-14.021 14.03-36.981 14.03-51.007 0-14.029-14.028-36.985-14.028-51.015 0-14.028 14.03-36.981 14.03-51.01 0-5.565-5.562-12.536-8.883-19.795-10.033-1.793 7.458-2.77 15.235-2.77 23.244 0 54.721 44.362 99.083 99.083 99.083 54.722 0 99.083-44.36 99.083-99.083-.002-8.008-.976-15.785-2.77-23.244z" fill="#6fd1e6"/><path d="m322.413 38.571c0-7.268-5.945-13.212-13.212-13.212h-106.407c-7.266 0-13.212 5.942-13.212 13.212v28.074c0 7.267 5.945 13.213 13.212 13.213h106.408c7.266 0 13.212-5.945 13.212-13.213v-28.074z" fill="#5c6670"/><path d="m213.556 36.637h84.882v31.932h-84.882z" fill="#99daea"/><path d="m442.656 0h-373.31c-22.757 0-41.272 18.515-41.272 41.273v429.453c0 22.758 18.515 41.273 41.272 41.273h373.309c22.756 0 41.27-18.515 41.27-41.273v-429.453c.001-22.758-18.513-41.273-41.269-41.273zm0 495.512h-373.31c-10.777 0-19.963-6.916-23.369-16.541h420.046c-3.405 9.624-12.592 16.541-23.367 16.541zm24.782-33.03h-422.876v-358.419h422.875v358.419zm-269.61-395.837v-28.074c0-2.692 2.274-4.967 4.967-4.967h106.408c2.692 0 4.967 2.274 4.967 4.967v28.074c0 2.693-2.274 4.968-4.967 4.968h-106.408c-2.693-.001-4.967-2.275-4.967-4.968zm269.61 20.93h-153.571c9.593-2.138 16.789-10.703 16.789-20.93v-28.074c0-11.831-9.625-21.456-21.456-21.456h-106.407c-11.831 0-21.456 9.625-21.456 21.456v28.074c0 10.227 7.198 18.792 16.789 20.93h-153.564v-46.302c0-13.667 11.118-24.785 24.784-24.785h373.309c13.665 0 24.782 11.119 24.782 24.785zm-260.979 225.917c6.385 0 11.562-5.176 11.562-11.559 0-6.386-5.175-11.562-11.562-11.562-6.383 0-11.559 5.175-11.559 11.562 0 6.383 5.177 11.559 11.559 11.559zm-45.138-273.269c-6.838 0-12.384 5.544-12.384 12.385 0 6.84 5.546 12.386 12.384 12.386 6.844 0 12.389-5.546 12.389-12.386 0-6.841-5.546-12.385-12.389-12.385zm124.71 303.301c8.293 0 15.016-6.724 15.016-15.016 0-8.29-6.724-15.014-15.016-15.014-8.29 0-15.014 6.724-15.014 15.014 0 8.291 6.724 15.016 15.014 15.016zm64.648-303.301c-6.843 0-12.388 5.544-12.388 12.385 0 6.84 5.546 12.386 12.388 12.386 6.84 0 12.384-5.546 12.384-12.386s-5.544-12.385-12.384-12.385zm-94.678 342.92c59.18 0 107.327-48.147 107.327-107.327s-48.148-107.327-107.327-107.327-107.327 48.147-107.327 107.327 48.147 107.327 107.327 107.327zm0-198.165c39.95 0 73.932 25.933 86.063 61.84-5.75 2.191-10.968 5.551-15.379 9.959-5.225 5.228-12.209 8.107-19.671 8.107-7.461 0-14.449-2.88-19.677-8.109-17.279-17.279-45.393-17.278-62.674.001-5.228 5.228-12.215 8.108-19.674 8.108-7.46 0-14.449-2.88-19.679-8.111-4.408-4.405-9.625-7.764-15.373-9.953 12.13-35.908 46.114-61.842 86.064-61.842zm-89.931 78.122c2.799 1.332 5.361 3.115 7.582 5.335 8.343 8.342 19.472 12.938 31.337 12.938 11.864 0 22.992-4.596 31.333-12.938 10.853-10.85 28.508-10.849 39.356-.001 8.341 8.343 19.469 12.939 31.337 12.939 11.867 0 22.995-4.596 31.328-12.936 2.223-2.222 4.787-4.004 7.588-5.337.585 4.157.908 8.399.908 12.716 0 50.088-40.749 90.838-90.838 90.838s-90.838-40.749-90.838-90.838c-.001-4.318.322-8.557.907-12.716zm89.931 143.163c71.929 0 130.447-58.518 130.447-130.447 0-71.927-58.518-130.444-130.447-130.444-63.911 0-117.23 46.202-128.322 106.96h-3.838v46.971h3.84c11.09 60.757 64.409 106.96 128.32 106.96zm0-244.403c62.837 0 113.958 51.12 113.958 113.956 0 62.837-51.121 113.958-113.958 113.958-62.836 0-113.956-51.121-113.956-113.958-.001-62.836 51.12-113.956 113.956-113.956zm134.587-121.637c-6.84 0-12.386 5.544-12.386 12.385 0 6.84 5.546 12.386 12.386 12.386 6.842 0 12.386-5.546 12.386-12.386.001-6.841-5.545-12.385-12.386-12.385z" fill="#1e252b"/></svg>